<svg width="68" height="25" viewBox="0 0 68 25" fill="none" xmlns="http://www.w3.org/2000/svg">
<path d="M0.5 0.438843H3.03125V24.4388H0.5V0.438843Z" fill="#D9D9D9"/>
<path d="M7.53125 13.3763C7.53125 12.8586 7.95098 12.4388 8.46875 12.4388H18.5938C19.1115 12.4388 19.5312 12.8586 19.5312 13.3763V23.5013C19.5312 24.0191 19.1115 24.4388 18.5938 24.4388H16.9062C11.7286 24.4388 7.53125 20.2415 7.53125 15.0638V13.3763Z" fill="#FE4502"/>
<path d="M19.5312 1.37634C19.5312 0.858576 19.951 0.438843 20.4688 0.438843H22.1562C27.3339 0.438843 31.5312 4.63617 31.5312 9.81384V11.5013C31.5312 12.0191 31.1115 12.4388 30.5938 12.4388H20.4688C19.951 12.4388 19.5312 12.0191 19.5312 11.5013V1.37634Z" fill="#FE4502"/>
<path d="M36.0312 13.3763C36.0312 12.8586 36.451 12.4388 36.9688 12.4388H47.0938C47.6115 12.4388 48.0312 12.8586 48.0312 13.3763V23.5013C48.0312 24.0191 47.6115 24.4388 47.0938 24.4388H45.4062C40.2286 24.4388 36.0312 20.2415 36.0312 15.0638V13.3763Z" fill="#FE4502"/>
<path d="M48.0312 1.37634C48.0312 0.858576 48.451 0.438843 48.9688 0.438843H50.6562C55.8339 0.438843 60.0312 4.63617 60.0312 9.81384V11.5013C60.0312 12.0191 59.6115 12.4388 59.0938 12.4388H48.9688C48.451 12.4388 48.0312 12.0191 48.0312 11.5013V1.37634Z" fill="#FE4502"/>
<path d="M64.5312 0.438843H67.0625V24.4388H64.5312V0.438843Z" fill="#D9D9D9"/>
</svg>
