<?xml version="1.0" encoding="UTF-8" standalone="no"?>
<!DOCTYPE svg PUBLIC "-//W3C//DTD SVG 1.1//EN" "http://www.w3.org/Graphics/SVG/1.1/DTD/svg11.dtd">
<svg width="100%" height="100%" viewBox="0 0 64 64" version="1.1" xmlns="http://www.w3.org/2000/svg" xmlns:xlink="http://www.w3.org/1999/xlink" xml:space="preserve" xmlns:serif="http://www.serif.com/" style="fill-rule:evenodd;clip-rule:evenodd;stroke-linejoin:round;stroke-miterlimit:2;">
    <g transform="matrix(1,0,0,1,-267,-129)">
        <g transform="matrix(1.28,0,0,1.28,-74.76,-36.12)">
            <path d="M292,129C305.798,129 317,140.202 317,154C317,167.798 305.798,179 292,179C278.202,179 267,167.798 267,154C267,140.202 278.202,129 292,129ZM292,145.702C296.58,145.702 300.298,149.42 300.298,154C300.298,158.58 296.58,162.298 292,162.298C287.42,162.298 283.702,158.58 283.702,154C283.702,149.42 287.42,145.702 292,145.702Z" style="fill:rgb(254,69,2);"/>
        </g>
        <g transform="matrix(1,0,0,1,-0.5,-3.5)">
            <circle cx="299.5" cy="164.5" r="3.5" style="fill:rgb(254,69,2);"/>
        </g>
    </g>
</svg>
